<svg xmlns="http://www.w3.org/2000/svg" viewBox="0 0 64 64"><defs><linearGradient id="t" x1="0" y1="0" x2="1" y2="1"><stop offset="0" stop-color="#34579f"/><stop offset="1" stop-color="#132a66"/></linearGradient><linearGradient id="r" x1="0" y1="0" x2="0" y2="1"><stop offset="0" stop-color="#fff" stop-opacity=".6"/><stop offset=".45" stop-color="#fff" stop-opacity="0"/><stop offset="1" stop-color="#000" stop-opacity=".3"/></linearGradient><radialGradient id="s" cx=".28" cy=".12" r=".75"><stop offset="0" stop-color="#fff" stop-opacity=".42"/><stop offset="1" stop-color="#fff" stop-opacity="0"/></radialGradient><filter id="d" x="-25%" y="-25%" width="150%" height="160%"><feDropShadow dy="2.2" stdDeviation="1.5" flood-color="#000" flood-opacity=".38"/></filter><linearGradient id="k" x1="0" y1="0" x2="0" y2="1"><stop offset="0" stop-color="#5b6678"/><stop offset="1" stop-color="#1f2733"/></linearGradient><linearGradient id="c" x1="0" y1="0" x2="0" y2="1"><stop offset="0" stop-color="#7ee0ff"/><stop offset="1" stop-color="#168ce0"/></linearGradient></defs><rect x="2" y="4.5" width="60" height="58" rx="16" fill="#0c1c47"/><rect x="2" y="2" width="60" height="58" rx="16" fill="url(#t)"/><rect x="2" y="2" width="60" height="58" rx="16" fill="url(#s)"/><rect x="3" y="3" width="58" height="56" rx="15" fill="none" stroke="url(#r)" stroke-width="2"/><g filter="url(#d)"><rect x="14" y="33" width="9" height="14" rx="3.5" fill="url(#c)"/><rect x="27.5" y="24" width="9" height="23" rx="3.5" fill="url(#c)"/><rect x="41" y="13" width="9" height="34" rx="3.5" fill="url(#c)"/><rect x="16" y="35" width="2.2" height="9" rx="1.1" fill="#fff" opacity=".45"/><rect x="29.5" y="26" width="2.2" height="18" rx="1.1" fill="#fff" opacity=".45"/><rect x="43" y="15" width="2.2" height="29" rx="1.1" fill="#fff" opacity=".45"/><rect x="10" y="46" width="44" height="5.5" rx="2.7" fill="url(#k)"/></g></svg>